<svg width="25" height="25" viewBox="0 0 25 25" fill="none" xmlns="http://www.w3.org/2000/svg">
<g clip-path="url(#clip0_1_42)">
<path d="M7.29167 16.6226C7.86458 16.6226 8.33333 17.0901 8.33333 17.6615C8.33333 18.8043 7.39583 19.7393 6.25 19.7393C6.07292 19.7393 5.90625 19.7185 5.72917 19.6874C6.05208 19.116 6.25 18.4303 6.25 17.6615C6.25 17.0901 6.71875 16.6226 7.29167 16.6226ZM19.4479 3.11675C19.1771 3.11675 18.9167 3.22064 18.7083 3.41803L9.375 12.7267L12.2396 15.5837L21.5729 6.27503C21.9792 5.86986 21.9792 5.21535 21.5729 4.81017L20.1771 3.41803C19.9687 3.21025 19.7083 3.11675 19.4479 3.11675ZM7.29167 14.5448C5.5625 14.5448 4.16667 15.9369 4.16667 17.6615C4.16667 19.0225 2.95834 19.7393 2.08334 19.7393C3.04167 21.0068 4.67708 21.8171 6.25 21.8171C8.55208 21.8171 10.4167 19.9575 10.4167 17.6615C10.4167 15.9369 9.02083 14.5448 7.29167 14.5448Z" fill="#171E36"/>
</g>
<defs>
<clipPath id="clip0_1_42">
<rect width="24.8067" height="24.7411" fill="white" transform="scale(1.00779)"/>
</clipPath>
</defs>
</svg>
