<svg width="15" height="15" viewBox="0 0 15 15" fill="none" xmlns="http://www.w3.org/2000/svg">
<g clip-path="url(#clip0_1_108)">
<path d="M2.47494 7.1125C2.64994 6.19375 3.51244 5.5625 4.44994 5.5625H6.28119C6.60619 5.5625 6.87494 5.29375 6.87494 4.96875C6.87494 4.64375 6.60619 4.375 6.28119 4.375H4.51244C2.88119 4.375 1.42494 5.56875 1.26869 7.19375C1.08744 9.05625 2.54994 10.625 4.37494 10.625H6.28119C6.60619 10.625 6.87494 10.3562 6.87494 10.0312C6.87494 9.70625 6.60619 9.4375 6.28119 9.4375H4.37494C3.18119 9.4375 2.23744 8.35 2.47494 7.1125ZM5.62494 8.125H9.37494C9.71869 8.125 9.99994 7.84375 9.99994 7.5C9.99994 7.15625 9.71869 6.875 9.37494 6.875H5.62494C5.28119 6.875 4.99994 7.15625 4.99994 7.5C4.99994 7.84375 5.28119 8.125 5.62494 8.125ZM10.4874 4.375H8.71869C8.39369 4.375 8.12494 4.64375 8.12494 4.96875C8.12494 5.29375 8.39369 5.5625 8.71869 5.5625H10.5499C11.4874 5.5625 12.3499 6.19375 12.5249 7.1125C12.7624 8.35 11.8187 9.4375 10.6249 9.4375H8.71869C8.39369 9.4375 8.12494 9.70625 8.12494 10.0312C8.12494 10.3562 8.39369 10.625 8.71869 10.625H10.6249C12.4499 10.625 13.9124 9.05625 13.7374 7.19375C13.5812 5.56875 12.1187 4.375 10.4874 4.375Z" fill="#171E36"/>
</g>
<defs>
<clipPath id="clip0_1_108">
<rect width="15" height="15" fill="white"/>
</clipPath>
</defs>
</svg>
