<svg width="25" height="25" viewBox="0 0 25 25" fill="none" xmlns="http://www.w3.org/2000/svg">
<g clip-path="url(#clip0_1_33)">
<path d="M12.5 2.07783C6.75 2.07783 2.08334 6.73215 2.08334 12.4669C2.08334 18.2017 6.75 22.856 12.5 22.856C18.25 22.856 22.9167 18.2017 22.9167 12.4669C22.9167 6.73215 18.25 2.07783 12.5 2.07783ZM5.44792 8.05157C6.35417 8.95542 6.97917 10.119 7.19792 11.428H4.23959C4.39584 10.2021 4.82292 9.05931 5.44792 8.05157ZM4.23959 13.5058H7.19792C6.97917 14.8149 6.35417 15.9785 5.44792 16.8823C4.82292 15.8746 4.39584 14.7318 4.23959 13.5058ZM11.4583 20.7055C9.65625 20.4769 8.03125 19.6666 6.78125 18.4822C8.13542 17.194 9.0625 15.459 9.30208 13.5058H11.4583V20.7055ZM11.4583 11.428H9.30208C9.05208 9.47487 8.13542 7.7295 6.77083 6.44125C8.03125 5.2569 9.65625 4.45694 11.4583 4.22838V11.428ZM20.7604 11.428H17.8021C18.0208 10.119 18.6458 8.95542 19.5521 8.05157C20.1771 9.05931 20.6042 10.2021 20.7604 11.428ZM13.5417 4.22838C15.3437 4.45694 16.9687 5.2569 18.2292 6.44125C16.8646 7.7295 15.9479 9.47487 15.6979 11.428H13.5417V4.22838ZM13.5417 20.7055V13.5058H15.6979C15.9479 15.459 16.8646 17.194 18.2187 18.4822C16.9687 19.6666 15.3437 20.4769 13.5417 20.7055ZM19.5521 16.8823C18.6458 15.9888 18.0312 14.8149 17.8021 13.5058H20.7604C20.6042 14.7318 20.1771 15.8746 19.5521 16.8823Z" fill="#171E36"/>
</g>
<defs>
<clipPath id="clip0_1_33">
<rect width="24.8067" height="24.7411" fill="white" transform="scale(1.00779)"/>
</clipPath>
</defs>
</svg>
