<svg width="25" height="25" viewBox="0 0 25 25" fill="none" xmlns="http://www.w3.org/2000/svg">
<g clip-path="url(#clip0_1_18)">
<path d="M20.3333 2.58687C17.8958 0.155821 13.4375 0.644109 10.3854 3.68812C8.71875 5.35037 7.76042 7.7087 7.73959 9.36057C7.71875 11.002 8.01042 13.4019 6.33334 15.0746L1.91667 19.4796L3.39584 20.9548L7.8125 16.5498C9.48959 14.8772 11.8958 15.1681 13.5417 15.1473C15.1875 15.1265 17.5625 14.1707 19.2292 12.5085C22.2708 9.46446 22.7708 5.01792 20.3333 2.58687ZM10.75 12.1345C9.15625 10.5449 9.65625 7.34508 11.8542 5.15298C14.0521 2.96088 17.25 2.4622 18.8542 4.05174C20.4479 5.64127 19.9479 8.84111 17.75 11.0332C15.5521 13.2253 12.3542 13.724 10.75 12.1345Z" fill="#171E36"/>
<path d="M18.75 17.6615C19.3021 17.6615 19.8333 17.8796 20.2187 18.2744C21.0312 19.0848 21.0312 20.4042 20.2187 21.2145C19.8333 21.5989 19.3021 21.8171 18.75 21.8171C18.1979 21.8171 17.6667 21.5989 17.2812 21.2041C16.4687 20.3938 16.4687 19.0744 17.2812 18.264C17.6667 17.8796 18.1979 17.6615 18.75 17.6615ZM18.75 15.5836C17.6875 15.5836 16.6146 15.9888 15.8021 16.7992C14.1771 18.4199 14.1771 21.0483 15.8021 22.6794C16.6146 23.4897 17.6875 23.8949 18.75 23.8949C19.8125 23.8949 20.8854 23.4897 21.6979 22.6794C23.3229 21.0587 23.3229 18.4303 21.6979 16.7992C20.8854 15.9888 19.8125 15.5836 18.75 15.5836Z" fill="#171E36"/>
</g>
<defs>
<clipPath id="clip0_1_18">
<rect width="24.8067" height="24.7411" fill="white" transform="scale(1.00779)"/>
</clipPath>
</defs>
</svg>
