<svg width="25" height="25" viewBox="0 0 25 25" fill="none" xmlns="http://www.w3.org/2000/svg">
<g clip-path="url(#clip0_1_24)">
<path d="M22.4791 16.7161L21.3437 8.75801C21.0521 6.71136 19.2916 5.19455 17.2187 5.19455H7.78123C5.70832 5.19455 3.9479 6.71136 3.65624 8.75801L2.52082 16.7161C2.29165 18.316 3.53124 19.7393 5.14582 19.7393C5.85415 19.7393 6.52082 19.4588 7.02082 18.9601L9.37498 16.6226H15.625L17.9687 18.9601C18.4687 19.4588 19.1458 19.7393 19.8437 19.7393C21.4687 19.7393 22.7083 18.316 22.4791 16.7161ZM20.2916 17.4641C20.2083 17.5576 20.0729 17.6615 19.8541 17.6615C19.6979 17.6615 19.5521 17.5991 19.4479 17.4952L16.4896 14.5447H8.5104L5.55207 17.4952C5.4479 17.5991 5.30207 17.6615 5.14582 17.6615C4.92707 17.6615 4.79165 17.5576 4.70832 17.4641C4.62498 17.3706 4.54165 17.2251 4.5729 17.007L5.70832 9.0489C5.86457 8.04116 6.74998 7.27237 7.78123 7.27237H17.2187C18.25 7.27237 19.1354 8.04116 19.2812 9.05929L20.4166 17.0173C20.4479 17.2251 20.3646 17.3706 20.2916 17.4641Z" fill="#171E36"/>
<path d="M9.37498 8.31129H8.33331V10.3891H6.24998V11.428H8.33331V13.5058H9.37498V11.428H11.4583V10.3891H9.37498V8.31129Z" fill="#171E36"/>
<path d="M17.7083 13.5058C18.2836 13.5058 18.75 13.0407 18.75 12.4669C18.75 11.8931 18.2836 11.428 17.7083 11.428C17.133 11.428 16.6667 11.8931 16.6667 12.4669C16.6667 13.0407 17.133 13.5058 17.7083 13.5058Z" fill="#171E36"/>
<path d="M15.625 10.3891C16.2003 10.3891 16.6667 9.92398 16.6667 9.3502C16.6667 8.77643 16.2003 8.31129 15.625 8.31129C15.0497 8.31129 14.5833 8.77643 14.5833 9.3502C14.5833 9.92398 15.0497 10.3891 15.625 10.3891Z" fill="#171E36"/>
</g>
<defs>
<clipPath id="clip0_1_24">
<rect width="24.8067" height="24.7411" fill="white" transform="scale(1.00779)"/>
</clipPath>
</defs>
</svg>
